<svg width="37" height="37" viewBox="0 0 37 37" fill="none" xmlns="http://www.w3.org/2000/svg">
<circle cx="18.1692" cy="18.8638" r="18" fill="#F5F5F5"/>
<g clip-path="url(#clip0_1_22)">
<path d="M24.8237 13.0146C24.4548 12.9066 15.4318 12.0083 12.2629 16.2894C10.8595 18.186 10.8384 20.7859 12.1926 24.0163C11.8491 24.7293 11.5483 25.4803 11.3033 26.2728C11.2288 26.5137 11.3635 26.769 11.6041 26.8433C11.6489 26.8572 11.6943 26.8637 11.7392 26.8637C11.9336 26.8637 12.1142 26.7381 12.1745 26.5425C14.5897 18.7341 22.4386 14.9564 24.8455 14.0021C25.0798 13.9092 25.3928 13.1812 24.8237 13.0146Z" fill="#84829A"/>
<path d="M13.6411 24.9934C14.9475 25.5415 16.2537 25.8224 17.4684 25.8224C18.5602 25.8224 19.5784 25.5979 20.4558 25.1427C22.2216 24.2266 23.3007 22.4745 23.5763 20.075C23.857 17.6295 24.2065 16.0978 24.4981 15.1608C21.9028 16.3579 16.338 19.4611 13.6411 24.9934Z" fill="#84829A"/>
</g>
<defs>
<clipPath id="clip0_1_22">
<rect width="14" height="14" fill="white" transform="translate(11.1692 12.8638)"/>
</clipPath>
</defs>
</svg>
