<svg width="37" height="37" viewBox="0 0 37 37" fill="none" xmlns="http://www.w3.org/2000/svg">
<circle cx="18.1692" cy="18.8638" r="18" fill="#F5F5F5"/>
<g clip-path="url(#clip0_1_36)">
<path d="M23.6699 11.8638C23.5923 11.8637 23.5157 11.8818 23.4462 11.9165L19.6573 13.8115L15.3728 11.907C15.3658 11.904 15.3579 11.9035 15.3503 11.9005C15.3311 11.8933 15.3114 11.8873 15.2913 11.8825C15.2715 11.8772 15.2512 11.873 15.2309 11.87C15.1902 11.8667 15.1494 11.8667 15.1089 11.87C15.0885 11.873 15.0683 11.8772 15.0484 11.8825C15.0284 11.8873 15.0086 11.8933 14.9894 11.9005C14.9819 11.9035 14.9739 11.904 14.9669 11.907L10.4669 13.907C10.2863 13.9872 10.1699 14.1663 10.1699 14.364V25.3638C10.17 25.533 10.2556 25.6906 10.3974 25.7828C10.5393 25.8751 10.7182 25.8894 10.8729 25.8208L15.1698 23.9108L19.4668 25.8208C19.4743 25.8238 19.4823 25.8208 19.4898 25.8253C19.6108 25.8794 19.7498 25.8763 19.8682 25.8168C19.8762 25.8133 19.8852 25.8168 19.8932 25.8113L23.8932 23.8113C24.0627 23.7266 24.1697 23.5533 24.1697 23.3638V12.364C24.1698 12.0879 23.9461 11.8639 23.6699 11.8638ZM14.6699 23.0388L11.1699 24.5943V14.689L14.6699 13.1335V23.0388ZM19.1698 24.5943L15.6698 23.0388V13.1335L19.1698 14.6889V24.5943ZM23.1697 23.0548L20.1698 24.5548V14.6729L23.1697 13.173V23.0548Z" fill="#84829A"/>
</g>
<defs>
<clipPath id="clip0_1_36">
<rect width="14" height="14" fill="white" transform="translate(10.1692 11.8638)"/>
</clipPath>
</defs>
</svg>
