<svg width="37" height="37" viewBox="0 0 37 37" fill="none" xmlns="http://www.w3.org/2000/svg">
<circle cx="18.1692" cy="18.8638" r="18" fill="#F5F5F5"/>
<path d="M23.5126 14.1063L17.1951 20.4471C17.1227 20.4052 17.0465 20.37 16.9676 20.3421L12.7967 18.9304C12.6706 18.8988 12.5587 18.826 12.4787 18.7235C12.3987 18.621 12.3552 18.4946 12.3552 18.3646C12.3552 18.2346 12.3987 18.1083 12.4787 18.0058C12.5587 17.9032 12.6706 17.8304 12.7967 17.7988L23.1451 14.1179C23.2127 14.095 23.2836 14.0832 23.3551 14.0829C23.4085 14.0821 23.4617 14.09 23.5126 14.1063Z" fill="#84829A"/>
<path d="M23.9151 14.8879L20.2342 25.2479C20.1936 25.3686 20.1146 25.4728 20.0093 25.5444C19.904 25.616 19.7781 25.6512 19.6509 25.6446C19.5222 25.6504 19.3952 25.6136 19.2897 25.5397C19.1842 25.4659 19.1061 25.3591 19.0676 25.2362L17.6792 21.0654C17.6513 20.9865 17.6162 20.9103 17.5742 20.8379L23.9267 14.5204C23.9626 14.6409 23.9585 14.7698 23.9151 14.8879Z" fill="#84829A"/>
</svg>
